<svg width="122" height="148" viewBox="0 0 122 148" fill="none" xmlns="http://www.w3.org/2000/svg">
<path d="M121 1V53.4072L27.7246 107.633C27.2257 107.358 26.6932 107.112 26.123 106.923H26.1221C23.5576 106.069 20.8427 106.367 18.4941 107.721V107.722C13.636 110.529 11.8448 117.013 14.3838 122.182L14.3848 122.185C15.6199 124.681 17.7001 126.567 20.2588 127.42L20.2725 127.424C21.2187 127.724 22.2075 127.899 23.21 127.899C24.8541 127.899 26.45 127.456 27.8994 126.623L27.9023 126.621C30.2582 125.257 31.9737 123 32.7354 120.283L32.7363 120.279C32.9098 119.65 33.0257 119.014 33.0938 118.38L53.5986 106.553V147H1V82.9053L70.2842 42.9629C70.7839 43.2384 71.3174 43.4844 71.8887 43.6738C72.8512 43.993 73.8436 44.1533 74.8379 44.1533C76.4623 44.1533 78.0709 43.7253 79.5273 42.876L79.5283 42.877C84.3895 40.0812 86.178 33.5838 83.6396 28.416C81.0836 23.2123 75.0387 21.136 70.124 23.9746C67.1224 25.7009 65.2975 28.8484 64.9395 32.2061L1.01172 69.0635V1H121Z" fill="url(#paint0_linear_151_4)" stroke="white" stroke-width="2"/>
<defs>
<linearGradient id="paint0_linear_151_4" x1="0" y1="74" x2="122" y2="74" gradientUnits="userSpaceOnUse">
<stop stop-color="#FFA110"/>
<stop offset="1" stop-color="#FF2B00"/>
</linearGradient>
</defs>
</svg>
